#N canvas 211 28 1570 697 16;
#X msg -237 132 devices;
#X obj -362 362 s ONN;
#X text -444 365 on/off;
#X msg -241 94 close;
#X obj -249 213 comport 8 9600;
#X text 293 166 en vez de sound1 \, 2 \, etc hay que reemplazar por los nombres de los samples, f 33;
#X obj -380 550 dac~;
#X obj -1 126 s bangall;
#X obj -1 59 loadbang;
#X msg 127 83 \; pd dsp 1;
#X obj -120 463 tempoknob;
#X obj -380 503 catch~ audio1;
#X obj -249 258 select 1;
#X msg -249 57 open 4;
#X obj 28 264 modulo 3 4 5 6 7 8 9 kick1 kick2 kick3 kick4 kick5 kick6;
#X obj 28 375 modulo 17 18 19 20 21 22 23 hh1 hh2 perc2 perc3 oh4 oh5 oh6;
#X obj 26 313 modulo 10 11 12 13 14 15 16 snare1 snare2 snare3 perc2 perc5 perc1;
#X floatatom -120 366 5 0 0 0 - - - 0;
#X obj 28 418 modulo 24 25 26 27 28 29 30 hh1 hh2 perc2 perc3 oh4 oh5 oh6;
#X connect 0 0 4 0;
#X connect 3 0 4 0;
#X connect 4 0 12 0;
#X connect 8 0 9 0;
#X connect 8 0 7 0;
#X connect 11 0 6 0;
#X connect 11 0 6 1;
#X connect 12 0 1 0;
#X connect 12 1 14 0;
#X connect 12 1 17 0;
#X connect 12 1 15 0;
#X connect 12 1 16 0;
#X connect 12 1 18 0;
#X connect 13 0 4 0;
#X connect 17 0 10 0;
