#N canvas 0 0 1366 697 16;
#X declare -lib moonlib;
#X obj 330 346 cnv 15 674 375 empty empty empty 20 12 0 14 #808080 #404040 0;
#N canvas 117 85 1366 686 subpatchContadorPrincipal 0;
#X obj 220 500 cnv 15 69 114 empty empty empty 20 12 0 14 #4a4a4a #404040 0;
#X obj 290 500 cnv 15 495 114 empty empty empty 20 12 0 14 #000000 #404040 0;
#X obj 240 501 tgl 29 0 empty empty empty 17 7 0 10 #ff8000 #ff00ff #00ff00 0 1;
#X obj 240 110 sel 0;
#X obj 300 110 metro, f 6;
#X obj 272 510 bng 15 100 50 0 empty empty empty 17 7 0 10 #fcfcfc #000000 #000000;
#X obj 150 110 loadbang;
#X obj 244 151 bng 15 250 50 0 empty empty empty 17 7 0 10 #fcfcfc #000000 #000000;
#X text 174 172 Reset;
#X obj 299 173 int 1;
#X floatatom 299 211 5 0 0 0 - - - 0;
#X floatatom 300 300 5 0 0 0 - - - 0;
#X obj 400 173 + 1;
#X obj 357 50 / 2;
#X obj 357 20 r 4th_time;
#X text 425 81 Duración de la 8va nota;
#X obj 149 289 % 32;
#X obj 149 319 + 1;
#X floatatom 149 349 5 0 0 0 - - - 0;
#X obj 149 379 sel 1;
#X obj 149 409 bng 15 250 50 0 empty empty empty 17 7 0 10 #fcfcfc #000000 #000000;
#X obj 10 290 % 8;
#X obj 10 320 + 1;
#X floatatom 10 350 5 0 0 0 - - - 0;
#X obj 10 380 sel 1;
#X obj 10 410 bng 15 250 50 0 empty empty empty 17 7 0 10 #fcfcfc #000000 #000000;
#X obj 370 510 bng 33 100 50 0 empty empty empty 17 7 0 10 #ff0000 #000000 #ffff00;
#X obj 430 510 bng 33 100 50 0 empty empty empty 17 7 0 10 #ff0000 #000000 #000000;
#X obj 219 657 s One;
#X obj 275 657 s Two;
#X obj 331 657 s Three;
#X obj 407 657 s Four;
#X obj 522 657 s Five;
#X obj 588 657 s Six;
#X obj 644 657 s Seven;
#X obj 720 657 s Eight;
#X obj 10 430 s Whole_Note;
#X obj 149 429 s New_Pattern;
#X obj 300 270 + 1;
#X floatatom 357 80 5 0 0 0 - - - 0;
#X obj 368 300 s contador-principal;
#X msg 219 627 1;
#X msg 275 627 1;
#X msg 331 627 1;
#X msg 407 627 1;
#X msg 522 627 1;
#X msg 588 627 1;
#X msg 644 627 1;
#X msg 720 627 1;
#X msg 247 694 1;
#X msg 313 694 1;
#X msg 369 694 1;
#X msg 455 694 1;
#X msg 569 690 1;
#X msg 675 690 1;
#X msg 781 690 1;
#X msg 877 689 1;
#X obj 247 724 s Nine;
#X obj 313 724 s Ten;
#X obj 369 724 s Eleven;
#X obj 455 724 s Twelve;
#X obj 569 720 s Thirteen;
#X obj 675 720 s Fourteen;
#X obj 781 720 s Fifteen;
#X obj 877 719 s Sixteen;
#X obj 300 240 % 16;
#X obj 310 510 bng 33 100 50 0 empty empty empty 17 7 0 10 #ff0000 #ffff00 #000000;
#X obj 560 510 bng 33 100 50 0 empty empty empty 17 7 0 10 #ff0000 #ffff00 #000000;
#X obj 620 510 bng 33 100 50 0 empty empty empty 17 7 0 10 #ff0000 #000000 #000000;
#X obj 490 510 bng 33 100 50 0 empty empty empty 17 7 0 10 #ff0000 #000000 #000000;
#X obj 740 510 bng 33 100 50 0 empty empty empty 17 7 0 10 #ff0000 #000000 #000000;
#X obj 310 570 bng 33 100 50 0 empty empty empty 17 7 0 10 #ff0000 #ffff00 #000000;
#X obj 680 510 bng 33 100 50 0 empty empty empty 17 7 0 10 #ff0000 #000000 #000000;
#X obj 430 570 bng 33 100 50 0 empty empty empty 17 7 0 10 #ff0000 #000000 #000000;
#X obj 490 570 bng 33 100 50 0 empty empty empty 17 7 0 10 #ff0000 #000000 #000000;
#X obj 370 570 bng 33 100 50 0 empty empty empty 17 7 0 10 #ff0000 #000000 #000000;
#X obj 620 570 bng 33 100 50 0 empty empty empty 17 7 0 10 #ff0000 #000000 #000000;
#X obj 680 570 bng 33 100 50 0 empty empty empty 17 7 0 10 #ff0000 #000000 #000000;
#X obj 560 570 bng 33 100 50 0 empty empty empty 17 7 0 10 #ff0000 #ffff00 #000000;
#X obj 740 570 bng 33 100 50 0 empty empty empty 17 7 0 10 #ff0000 #000000 #000000;
#X obj 540 500 cnv 15 8 114 empty empty empty 20 12 0 14 #1a1a1a #404040 0;
#X obj 140 470 r ONN;
#X obj 300 338 sel 1 2 3 4 5 6 7 8 9 10 11 12 13 14 15 16;
#X msg 244 173 -1;
#X connect 2 0 3 0;
#X connect 2 0 4 0;
#X connect 3 0 7 0;
#X connect 4 0 5 0;
#X connect 5 0 9 0;
#X connect 6 0 7 0;
#X connect 7 0 83 0;
#X connect 9 0 10 0;
#X connect 9 0 12 0;
#X connect 10 0 16 0;
#X connect 10 0 21 0;
#X connect 10 0 65 0;
#X connect 11 0 40 0;
#X connect 11 0 82 0;
#X connect 12 0 9 1;
#X connect 13 0 39 0;
#X connect 14 0 13 0;
#X connect 16 0 17 0;
#X connect 17 0 18 0;
#X connect 18 0 19 0;
#X connect 19 0 20 0;
#X connect 20 0 37 0;
#X connect 21 0 22 0;
#X connect 22 0 23 0;
#X connect 23 0 24 0;
#X connect 24 0 25 0;
#X connect 25 0 36 0;
#X connect 26 0 42 0;
#X connect 27 0 43 0;
#X connect 38 0 11 0;
#X connect 39 0 4 1;
#X connect 41 0 28 0;
#X connect 42 0 29 0;
#X connect 43 0 30 0;
#X connect 44 0 31 0;
#X connect 45 0 32 0;
#X connect 46 0 33 0;
#X connect 47 0 34 0;
#X connect 48 0 35 0;
#X connect 49 0 57 0;
#X connect 50 0 58 0;
#X connect 51 0 59 0;
#X connect 52 0 60 0;
#X connect 53 0 61 0;
#X connect 54 0 62 0;
#X connect 55 0 63 0;
#X connect 56 0 64 0;
#X connect 65 0 38 0;
#X connect 66 0 41 0;
#X connect 67 0 45 0;
#X connect 68 0 46 0;
#X connect 69 0 44 0;
#X connect 70 0 48 0;
#X connect 71 0 49 0;
#X connect 72 0 47 0;
#X connect 73 0 51 0;
#X connect 74 0 52 0;
#X connect 75 0 50 0;
#X connect 76 0 54 0;
#X connect 77 0 55 0;
#X connect 78 0 53 0;
#X connect 79 0 56 0;
#X connect 81 0 2 0;
#X connect 82 0 66 0;
#X connect 82 1 26 0;
#X connect 82 2 27 0;
#X connect 82 3 69 0;
#X connect 82 4 67 0;
#X connect 82 5 68 0;
#X connect 82 6 72 0;
#X connect 82 7 70 0;
#X connect 82 8 71 0;
#X connect 82 9 75 0;
#X connect 82 10 73 0;
#X connect 82 11 74 0;
#X connect 82 12 78 0;
#X connect 82 13 76 0;
#X connect 82 14 77 0;
#X connect 82 15 79 0;
#X connect 83 0 9 0;
#X coords 0 -1 1 1 569 118 2 218 498;
#X restore 381 398 pd subpatchContadorPrincipal;
#X text 1202 1090 GAIN;
#X obj 1210 35 declare -lib moonlib;
#X text 383 376 ON OFF;
#X obj 209 99 comprot;
#X obj 401 538 seq 1 3;
#X obj 401 576 seq 2 10;
#X obj 388 439 tempoknob;
#X obj 401 614 seq 3 17;
#X obj 401 652 seq 4 24;
#X coords 0 348.5 1 347.5 679 380 0;
