#N canvas 260 415 1920 966 12;
#X floatatom 401 342 8 0 0 0 - - - 0;
#X obj 401 370 >;
#X floatatom 470 342 5 0 0 0 - - - 0;
#X msg 470 313 3000;
#X obj 401 424 sel 1;
#X obj 401 313 timer;
#X obj 356 381 bng 19 250 50 0 empty empty empty 0 -10 0 12 #fcfcfc #000000 #000000;
#X obj 397 176 key;
#X obj 401 395 change;
#X obj 262 533 expr if;
#X obj 401 452 tgl 19 0 empty empty empty 0 -10 0 12 #fcfcfc #000000 #000000 0 1;
#X msg 356 453 0;
#X obj 401 283 spigot;
#X obj 459 283 tgl 19 0 empty empty empty 0 -10 0 12 #fcfcfc #000000 #000000 0 1;
#X msg 455 207 1;
#X obj 382 205 bng 19 250 50 0 empty empty empty 0 -10 0 12 #fcfcfc #000000 #000000;
#X obj 319 286 f;
#X obj 361 286 + 1;
#X obj 319 317 sel 1;
#X floatatom 319 344 4 0 0 0 - - - 0;
#X msg 319 244 0;
#X connect 0 0 1 0;
#X connect 1 0 8 0;
#X connect 2 0 1 1;
#X connect 3 0 2 0;
#X connect 4 0 10 0;
#X connect 5 0 0 0;
#X connect 6 0 5 0;
#X connect 7 0 14 0;
#X connect 7 0 15 0;
#X connect 8 0 4 0;
#X connect 10 0 6 0;
#X connect 10 0 11 0;
#X connect 11 0 10 0;
#X connect 12 0 5 1;
#X connect 13 0 12 1;
#X connect 14 0 13 0;
#X connect 15 0 12 0;
#X connect 15 0 16 0;
#X connect 16 0 17 0;
#X connect 17 0 16 1;
#X connect 17 0 18 0;
#X connect 18 0 5 0;
#X connect 18 1 19 0;
#X connect 20 0 16 1;
