#N canvas 0 0 1366 686 12;
#X obj -177 237 change;
#X floatatom -193 213 5 0 0 0 - - - 0;
#X obj -285 137 inlet;
#N canvas 450 202 450 300 (subpatch) 0;
#X array \$0-sample1 43524 float 2;
#X coords 0 1 43524 -1 200 140 1;
#X restore 893 475 graph;
#N canvas 0 0 450 300 (subpatch) 0;
#X array \$0-sample4 21992 float 2;
#X coords 0 1 21992 -1 200 140 1;
#X restore 893 635 graph;
#N canvas 450 202 450 300 (subpatch) 0;
#X array \$0-sample2 4751 float 2;
#X coords 0 1 4751 -1 200 140 1;
#X restore 1135 475 graph;
#N canvas 0 0 450 300 (subpatch) 0;
#X array \$0-sample3 31800 float 2;
#X coords 0 1 31800 -1 200 140 1;
#X restore 1382 475 graph;
#X obj 802 124 soundfiler;
#X obj 1082 125 soundfiler;
#X obj 789 367 soundfiler;
#X obj 1075 368 soundfiler;
#X msg 802 101 read -resize samples/\$1.wav \$2-sample1;
#X obj 1225 46 f \$0;
#X obj 1082 72 pack s f;
#X obj 931 292 f \$0;
#X obj 789 317 pack s f;
#X obj 1222 289 f \$0;
#X obj 1075 315 pack s f;
#X msg 1082 99 read -resize samples/\$1.wav \$2-sample2;
#X msg -234 485 set \$1-sample1;
#X msg -121 485 set \$1-sample2;
#X msg -9 485 set \$1-sample3;
#X obj 1225 72 s set\$2;
#X obj -234 438 r set\$1;
#X obj -121 438 r set\$2;
#X obj -9 438 r set\$3;
#X obj -234 532 r set\$4;
#X obj 845 -27 r sample\$1;
#X obj 1139 -27 r sample\$2;
#X obj 802 74 pack s f;
#X obj 939 48 f \$0;
#X obj 939 74 s set\$1;
#X obj 179 35 s sample\$1;
#X obj 162 56 s sample\$2;
#X obj 145 77 s sample\$3;
#X obj 128 98 s sample\$4;
#X obj -253 237 s boton\$1;
#X obj 538 419 r boton\$1;
#X obj 685 679 s seqs\$1;
#X obj -253 215 bng 13 250 50 0 empty empty empty 17 7 0 10 #fcfcfc #000000 #000000;
#X obj -177 297 s \$1-pos1;
#X obj -153 318 s \$2-pos2;
#X obj -129 339 s \$3-pos3;
#X obj -105 297 s \$4-pos4;
#X obj 986 -27 r \$1-pos1;
#X obj 1277 -27 r \$2-pos2;
#X msg -234 579 set \$1-sample4;
#X obj 77 -35 r bangall;
#X obj 252 629 line~;
#X msg 252 589 0;
#X obj 228 231 list append;
#X listbox 228 262 20 0 0 0 - - - 0;
#X floatatom 228 354 15 0 0 0 - - - 0;
#X msg 228 415 set 0 \, addcomma \, add2 \$2 \, add2 \$1;
#X obj 252 674 tabread4~;
#X obj 989 292 s bang;
#X obj 1267 289 s bang;
#X floatatom 802 148 8 0 0 0 - - - 0;
#X floatatom 1082 149 9 0 0 0 - - - 0;
#X floatatom 789 391 8 0 0 0 - - - 0;
#X floatatom 1075 391 8 0 0 0 - - - 0;
#X obj 802 177 s samples\$1;
#X obj 789 420 s samples\$1;
#X obj 1082 178 s samples\$1;
#X obj 1075 419 s samples\$1;
#X obj 730 124 r \$1-pos1;
#X obj 1011 124 r \$2-pos2;
#X obj 346 353 r samples\$1;
#X obj 228 384 pack f f;
#X msg 228 486 0 \, 43524 625.345;
#X obj 228 323 expr ((60/$f1)*$f2)*1000;
#X obj 393 231 r samples\$1;
#X obj 1283 43 s bang;
#X obj 1000 39 s bang;
#X obj 252 549 r bang;
#X obj 228 200 r tempo;
#X obj 168 416 r seq\$1;
#X obj 538 502 t b b;
#X obj 538 531 timer;
#X obj 538 589 sel 1;
#X obj 538 448 bng 15 250 50 0 empty empty empty 17 7 0 10 #fcfcfc #000000 #000000;
#X obj 538 618 bng 15 250 50 0 empty empty double 17 7 0 10 #fcfcfc #000000 #000000;
#X obj 538 560 < 200;
#X obj 636 531 delay 201;
#X obj 636 589 spigot 0;
#X msg 747 531 1;
#X msg 711 531 0;
#X obj 636 618 bng 15 250 50 0 empty empty single 17 7 0 10 #fcfcfc #000000 #000000;
#X obj 538 473 t b b b;
#X obj 665 650 spigot;
#X obj 593 650 tgl 19 1 empty empty empty 0 -10 0 12 #fcfcfc #000000 #000000 1 1;
#X obj 1360 123 soundfiler;
#X obj 1361 366 soundfiler;
#X obj 1503 44 f \$0;
#X obj 1360 70 pack s f;
#X obj 1508 288 f \$0;
#X obj 1361 314 pack s f;
#X obj 1553 288 s bang;
#X floatatom 1360 147 9 0 0 0 - - - 0;
#X floatatom 1361 390 8 0 0 0 - - - 0;
#X obj 1360 176 s samples\$1;
#X obj 1361 417 s samples\$1;
#X obj 1561 41 s bang;
#X obj 1417 -27 r sample\$3;
#X obj 810 219 r sample\$4;
#X obj 1124 218 r sample\$5;
#X obj 1361 225 r sample\$6;
#X obj 1555 -27 r \$3-pos3;
#X obj 1503 70 s set\$3;
#X obj 1289 122 r \$3-pos3;
#X obj 967 219 r \$4-pos4;
#X obj 931 317 s set\$4;
#X msg 789 342 read -resize samples/\$1.wav \$2-sample4;
#X msg 1360 97 read -resize samples/\$1.wav \$2-sample3;
#X obj 715 367 r \$4-pos4;
#X obj 1243 239 r \$5-pos5;
#X obj 1222 315 s set\$5;
#X msg 1075 341 read -resize samples/\$1.wav \$2-sample5;
#X obj 1003 368 r \$5-pos5;
#X obj 1289 367 r \$6-pos6;
#X obj 1533 225 r \$6-pos6;
#X obj 1508 314 s set\$6;
#X msg 1361 340 read -resize samples/\$1.wav \$2-sample6;
#N canvas 0 0 450 300 (subpatch) 0;
#X array \$0-sample6 555904 float 2;
#X coords 0 1 555904 -1 200 140 1;
#X restore 1382 635 graph;
#N canvas 450 202 450 300 (subpatch) 0;
#X array \$0-sample5 19698 float 2;
#X coords 0 1 19698 -1 200 140 1;
#X restore 1135 635 graph;
#X obj 111 119 s sample\$5;
#X obj 94 140 s sample\$6;
#X obj -121 532 r set\$5;
#X obj -9 532 r set\$6;
#X msg -121 579 set \$1-sample5;
#X msg -9 579 set \$1-sample6;
#X obj -82 318 s \$5-pos5;
#X obj -58 339 s \$6-pos6;
#X obj 845 16 t b b;
#X obj 1139 16 t b b;
#X obj 1417 16 t b b;
#X obj 810 262 t b b;
#X obj 1361 260 t b b;
#X obj 1124 261 t b b;
#X obj 393 262 / 48000;
#X text 291 711 va a comprot;
#X obj 228 292 pack f f;
#X obj -32 26 s \$1-posinicial;
#X obj -298 270 r \$1-posinicial;
#X obj -253 189 select \$1;
#X obj -177 270 sel \$2 \$3 \$4 \$5 \$6 \$7;
#X obj 77 -3 t b b b b b b b;
#X obj 802 48 symbol \$8;
#X obj 1082 47 symbol \$9;
#X obj 1360 44 symbol \$10;
#X obj 790 293 symbol \$11;
#X obj 1075 289 symbol \$12;
#X obj 1361 288 symbol \$13;
#X obj -258 323 bng 20 250 50 0 empty empty empty 0 -10 0 12 #fcfcfc #000000 #000000;
#X obj 252 730 throw~ audio1;
#X msg -95 179 9;
#X connect 0 0 145 0;
#X connect 1 0 0 0;
#X connect 2 0 144 0;
#X connect 7 0 57 0;
#X connect 8 0 58 0;
#X connect 9 0 59 0;
#X connect 10 0 60 0;
#X connect 11 0 7 0;
#X connect 12 0 13 1;
#X connect 12 0 22 0;
#X connect 13 0 18 0;
#X connect 14 0 15 1;
#X connect 14 0 111 0;
#X connect 15 0 112 0;
#X connect 16 0 17 1;
#X connect 16 0 116 0;
#X connect 17 0 117 0;
#X connect 18 0 8 0;
#X connect 19 0 54 0;
#X connect 20 0 54 0;
#X connect 21 0 54 0;
#X connect 23 0 19 0;
#X connect 24 0 20 0;
#X connect 25 0 21 0;
#X connect 26 0 46 0;
#X connect 27 0 133 0;
#X connect 28 0 134 0;
#X connect 29 0 11 0;
#X connect 30 0 31 0;
#X connect 30 0 29 1;
#X connect 37 0 80 0;
#X connect 39 0 36 0;
#X connect 44 0 30 0;
#X connect 44 0 73 0;
#X connect 45 0 12 0;
#X connect 45 0 72 0;
#X connect 46 0 54 0;
#X connect 47 0 146 0;
#X connect 48 0 54 0;
#X connect 49 0 48 0;
#X connect 50 0 51 0;
#X connect 51 0 141 0;
#X connect 52 0 68 0;
#X connect 53 0 69 0;
#X connect 54 0 154 0;
#X connect 57 0 61 0;
#X connect 58 0 63 0;
#X connect 59 0 62 0;
#X connect 60 0 64 0;
#X connect 65 0 57 0;
#X connect 66 0 58 0;
#X connect 67 0 68 1;
#X connect 68 0 53 0;
#X connect 69 0 48 0;
#X connect 70 0 52 0;
#X connect 71 0 139 0;
#X connect 74 0 49 0;
#X connect 75 0 50 0;
#X connect 76 0 69 0;
#X connect 77 0 78 0;
#X connect 77 1 78 1;
#X connect 78 0 82 0;
#X connect 79 0 81 0;
#X connect 79 0 86 0;
#X connect 80 0 88 0;
#X connect 80 0 69 0;
#X connect 81 0 90 0;
#X connect 82 0 79 0;
#X connect 83 0 84 0;
#X connect 84 0 87 0;
#X connect 85 0 84 1;
#X connect 86 0 84 1;
#X connect 87 0 89 0;
#X connect 88 0 77 0;
#X connect 88 1 83 0;
#X connect 88 2 85 0;
#X connect 89 0 38 0;
#X connect 90 0 89 1;
#X connect 91 0 98 0;
#X connect 92 0 99 0;
#X connect 93 0 94 1;
#X connect 93 0 108 0;
#X connect 94 0 113 0;
#X connect 95 0 96 1;
#X connect 95 0 121 0;
#X connect 96 0 122 0;
#X connect 98 0 100 0;
#X connect 99 0 101 0;
#X connect 103 0 135 0;
#X connect 104 0 136 0;
#X connect 105 0 138 0;
#X connect 106 0 137 0;
#X connect 107 0 93 0;
#X connect 107 0 102 0;
#X connect 109 0 98 0;
#X connect 110 0 14 0;
#X connect 110 0 55 0;
#X connect 112 0 9 0;
#X connect 113 0 91 0;
#X connect 114 0 59 0;
#X connect 115 0 16 0;
#X connect 115 0 56 0;
#X connect 117 0 10 0;
#X connect 118 0 60 0;
#X connect 119 0 99 0;
#X connect 120 0 95 0;
#X connect 120 0 97 0;
#X connect 122 0 92 0;
#X connect 127 0 129 0;
#X connect 128 0 130 0;
#X connect 129 0 54 0;
#X connect 130 0 54 0;
#X connect 133 0 147 0;
#X connect 133 1 30 0;
#X connect 134 0 148 0;
#X connect 134 1 12 0;
#X connect 135 0 149 0;
#X connect 135 1 93 0;
#X connect 136 0 150 0;
#X connect 136 1 14 0;
#X connect 137 0 152 0;
#X connect 137 1 95 0;
#X connect 138 0 151 0;
#X connect 138 1 16 0;
#X connect 139 0 141 1;
#X connect 141 0 70 0;
#X connect 143 0 40 0;
#X connect 144 0 39 0;
#X connect 144 1 1 0;
#X connect 145 0 40 0;
#X connect 145 1 41 0;
#X connect 145 2 42 0;
#X connect 145 3 43 0;
#X connect 145 4 131 0;
#X connect 145 5 132 0;
#X connect 146 0 142 0;
#X connect 146 1 126 0;
#X connect 146 2 125 0;
#X connect 146 3 35 0;
#X connect 146 4 34 0;
#X connect 146 5 33 0;
#X connect 146 6 32 0;
#X connect 147 0 29 0;
#X connect 148 0 13 0;
#X connect 149 0 94 0;
#X connect 150 0 15 0;
#X connect 151 0 17 0;
#X connect 152 0 96 0;
#X connect 153 0 40 0;
#X connect 155 0 1 0;
#X coords 0 686 1 685 85 60 0;
