#N canvas 0 0 1370 729 10;
#X obj 100 -77 cnv 15 999 42 empty empty empty 20 12 0 14 #8080ff #404040 0;
#X obj 620 100 tgl 27 0 empty empty empty 17 7 0 10 #930000 #000000 #000000 0 1;
#X obj 650 100 tgl 27 0 empty empty empty 17 7 0 10 #930000 #000000 #000000 0 1;
#X obj 680 100 tgl 27 0 empty empty empty 17 7 0 10 #930000 #000000 #000000 0 1;
#X obj 710 100 tgl 27 0 empty empty empty 17 7 0 10 #930000 #000000 #000000 0 1;
#X obj 740 100 tgl 27 0 empty empty empty 17 7 0 10 #ff8040 #000000 #000000 0 1;
#X obj 770 100 tgl 27 0 empty empty empty 17 7 0 10 #ff8000 #000000 #000000 0 1;
#X obj 800 100 tgl 27 0 empty empty empty 17 7 0 10 #ff8000 #000000 #000000 0 1;
#X obj 830 100 tgl 27 0 empty empty empty 17 7 0 10 #ff8000 #000000 #000000 0 1;
#X obj 373 239 ==;
#X obj 423 239 ==;
#X obj 373 269 sel 1;
#X obj 373 299 bng 15 250 50 0 empty empty empty 17 7 0 10 #fcfcfc #000000 #000000;
#X obj 423 269 sel 1;
#X obj 423 299 bng 15 250 50 0 empty empty empty 17 7 0 10 #fcfcfc #000000 #000000;
#X obj 473 239 ==;
#X obj 473 269 sel 1;
#X obj 473 299 bng 15 250 50 0 empty empty empty 17 7 0 10 #fcfcfc #000000 #000000;
#X obj 533 239 ==;
#X obj 533 269 sel 1;
#X obj 533 299 bng 15 250 50 0 empty empty empty 17 7 0 10 #fcfcfc #000000 #000000;
#X obj 593 239 ==;
#X obj 643 239 ==;
#X obj 593 269 sel 1;
#X obj 593 299 bng 15 250 50 0 empty empty empty 17 7 0 10 #fcfcfc #000000 #000000;
#X obj 643 269 sel 1;
#X obj 643 299 bng 15 250 50 0 empty empty empty 17 7 0 10 #fcfcfc #000000 #000000;
#X obj 693 239 ==;
#X obj 693 269 sel 1;
#X obj 693 299 bng 15 250 50 0 empty empty empty 17 7 0 10 #fcfcfc #000000 #000000;
#X obj 753 239 ==;
#X obj 753 269 sel 1;
#X obj 753 299 bng 15 250 50 0 empty empty empty 17 7 0 10 #fcfcfc #000000 #000000;
#X obj 860 100 tgl 27 0 empty empty empty 17 7 0 10 #ffff80 #000000 #000000 0 1;
#X obj 890 100 tgl 27 0 empty empty empty 17 7 0 10 #ffff80 #000000 #000000 0 1;
#X obj 920 100 tgl 27 0 empty empty empty 17 7 0 10 #ffff00 #000000 #000000 0 1;
#X obj 950 100 tgl 27 0 empty empty empty 17 7 0 10 #ffff00 #000000 #000000 0 1;
#X obj 980 100 tgl 27 0 empty empty empty 17 7 0 10 #ffffe1 #000000 #000000 0 1;
#X obj 1010 100 tgl 27 0 empty empty empty 17 7 0 10 #ffffe1 #000000 #000000 0 1;
#X obj 1040 100 tgl 27 0 empty empty empty 17 7 0 10 #ffffe1 #000000 #000000 0 1;
#X obj 1070 100 tgl 27 0 empty empty empty 17 7 0 10 #ffffe1 #ff0000 #000000 0 1;
#X obj 823 239 ==;
#X obj 873 239 ==;
#X obj 823 269 sel 1;
#X obj 823 299 bng 15 250 50 0 empty empty empty 17 7 0 10 #fcfcfc #000000 #000000;
#X obj 873 269 sel 1;
#X obj 873 299 bng 15 250 50 0 empty empty empty 17 7 0 10 #fcfcfc #000000 #000000;
#X obj 923 239 ==;
#X obj 923 269 sel 1;
#X obj 923 299 bng 15 250 50 0 empty empty empty 17 7 0 10 #fcfcfc #000000 #000000;
#X obj 983 239 ==;
#X obj 983 269 sel 1;
#X obj 983 299 bng 15 250 50 0 empty empty empty 17 7 0 10 #fcfcfc #000000 #000000;
#X obj 1053 239 ==;
#X obj 1133 239 ==;
#X obj 1053 269 sel 1;
#X obj 1053 299 bng 15 250 50 0 empty empty empty 17 7 0 10 #fcfcfc #000000 #000000;
#X obj 1133 269 sel 1;
#X obj 1133 299 bng 15 250 50 0 empty empty empty 17 7 0 10 #fcfcfc #000000 #000000;
#X obj 1213 239 ==;
#X obj 1213 269 sel 1;
#X obj 1213 299 bng 15 250 50 0 empty empty empty 17 7 0 10 #fcfcfc #000000 #000000;
#X obj 1283 239 ==;
#X obj 1283 269 sel 1;
#X obj 1283 299 bng 15 250 50 0 empty empty empty 17 7 0 10 #fcfcfc #000000 #000000;
#X obj 193 151 r contador-principal;
#X obj 193 205 + 1;
#X obj 104 337 send;
#X obj 373 169 r One;
#X obj 423 169 r Two;
#X obj 473 169 r Three;
#X obj 531 169 r Four;
#X obj 593 169 r Five;
#X obj 643 169 r Six;
#X obj 693 169 r Seven;
#X obj 753 169 r Eight;
#X obj 821 169 r Nine;
#X obj 873 169 r Ten;
#X obj 923 169 r Eleven;
#X obj 983 169 r Twelve;
#X obj 1053 169 r Thirteen;
#X obj 1133 169 r Fourteen;
#X obj 1283 169 r Sixteen;
#X obj 1213 169 r Fifteen;
#X obj 60 477 r One-\$1;
#X obj 120 477 r Two-\$1;
#X obj 170 477 r Three-\$1;
#X obj 228 477 r Four-\$1;
#X obj 290 477 r Five-\$1;
#X obj 340 477 r Six-\$1;
#X obj 390 477 r Seven-\$1;
#X obj 450 477 r Eight-\$1;
#X obj 518 477 r Nine-\$1;
#X obj 570 477 r Ten-\$1;
#X obj 620 477 r Eleven-\$1;
#X obj 680 477 r Twelve-\$1;
#X obj 750 477 r Thirteen-\$1;
#X obj 830 477 r Fourteen-\$1;
#X obj 913 477 r Fifteen-\$1;
#X obj 995 477 r Sixteen-\$1;
#X obj 580 100 bng 28 50 10 0 empty empty empty 17 7 0 10 #fcfcfc #000000 #000000;
#X obj 122 155 loadbang;
#X obj 122 215 nbx 5 14 -1e+37 1e+37 0 0 empty empty empty 0 -8 0 10 #fcfcfc #000000 #000000 0 256;
#X obj 125 275 pack f f;
#X obj 122 185 f \$1;
#X msg 125 304 symbol inst-\$2-paso-\$1;
#X obj 620 -28 r inst-\$1-paso-1;
#X obj 650 -3 r inst-\$1-paso-2;
#X obj 680 23 r inst-\$1-paso-3;
#X obj 710 46 r inst-\$1-paso-4;
#X obj 193 179 nbx 3 14 -1e+37 1e+37 0 0 empty empty empty 0 -8 0 10 #fcfcfc #000000 #000000 0 256;
#X obj 193 253 nbx 3 14 -1e+37 1e+37 0 0 empty empty empty 0 -8 0 10 #fcfcfc #000000 #000000 0 256;
#X obj 193 233 expr if ($f1 == 17 \, 1 \, $f1);
#X obj 740 -28 r inst-\$1-paso-5;
#X obj 770 -3 r inst-\$1-paso-6;
#X obj 800 23 r inst-\$1-paso-7;
#X obj 830 46 r inst-\$1-paso-8;
#X obj 860 -28 r inst-\$1-paso-9;
#X obj 890 -3 r inst-\$1-paso-10;
#X obj 920 23 r inst-\$1-paso-11;
#X obj 950 46 r inst-\$1-paso-12;
#X obj 980 -28 r inst-\$1-paso-13;
#X obj 1010 -3 r inst-\$1-paso-14;
#X obj 1040 23 r inst-\$1-paso-15;
#X obj 1070 46 r inst-\$1-paso-16;
#X obj 407 29 r seqs\$2;
#X msg 464 28 0, f 7;
#X obj 795 361 s seq\$2;
#X obj 104 128 bng 16 250 50 0 empty empty empty 0 -8 0 10 #fcfcfc #000000 #000000;
#X obj 464 -20 r borrind\$2;
#X text 720 -27;
#X text 750 -2;
#X text 780 24;
#X text 810 47;
#X text 839 -27;
#X text 870 -2;
#X text 900 24;
#X text 930 47;
#X text 960 -27;
#X text 993 -3;
#X text 1023 24;
#X text 1054 47;
#X connect 1 0 9 1;
#X connect 2 0 10 1;
#X connect 3 0 15 1;
#X connect 4 0 18 1;
#X connect 5 0 21 1;
#X connect 6 0 22 1;
#X connect 7 0 27 1;
#X connect 8 0 30 1;
#X connect 9 0 11 0;
#X connect 10 0 13 0;
#X connect 11 0 12 0;
#X connect 12 0 127 0;
#X connect 13 0 14 0;
#X connect 14 0 127 0;
#X connect 15 0 16 0;
#X connect 16 0 17 0;
#X connect 17 0 127 0;
#X connect 18 0 19 0;
#X connect 19 0 20 0;
#X connect 20 0 127 0;
#X connect 21 0 23 0;
#X connect 22 0 25 0;
#X connect 23 0 24 0;
#X connect 24 0 127 0;
#X connect 25 0 26 0;
#X connect 26 0 127 0;
#X connect 27 0 28 0;
#X connect 28 0 29 0;
#X connect 29 0 127 0;
#X connect 30 0 31 0;
#X connect 31 0 32 0;
#X connect 32 0 127 0;
#X connect 33 0 41 1;
#X connect 34 0 42 1;
#X connect 35 0 47 1;
#X connect 36 0 50 1;
#X connect 37 0 53 1;
#X connect 38 0 54 1;
#X connect 39 0 59 1;
#X connect 40 0 62 1;
#X connect 41 0 43 0;
#X connect 42 0 45 0;
#X connect 43 0 44 0;
#X connect 44 0 127 0;
#X connect 45 0 46 0;
#X connect 46 0 127 0;
#X connect 47 0 48 0;
#X connect 48 0 49 0;
#X connect 49 0 127 0;
#X connect 50 0 51 0;
#X connect 51 0 52 0;
#X connect 52 0 127 0;
#X connect 53 0 55 0;
#X connect 54 0 57 0;
#X connect 55 0 56 0;
#X connect 56 0 127 0;
#X connect 57 0 58 0;
#X connect 58 0 127 0;
#X connect 59 0 60 0;
#X connect 60 0 61 0;
#X connect 61 0 127 0;
#X connect 62 0 63 0;
#X connect 63 0 64 0;
#X connect 64 0 127 0;
#X connect 65 0 110 0;
#X connect 66 0 112 0;
#X connect 68 0 9 0;
#X connect 69 0 10 0;
#X connect 70 0 15 0;
#X connect 71 0 18 0;
#X connect 72 0 21 0;
#X connect 73 0 22 0;
#X connect 74 0 27 0;
#X connect 75 0 30 0;
#X connect 76 0 41 0;
#X connect 77 0 42 0;
#X connect 78 0 47 0;
#X connect 79 0 50 0;
#X connect 80 0 53 0;
#X connect 81 0 54 0;
#X connect 82 0 62 0;
#X connect 83 0 59 0;
#X connect 100 0 128 0;
#X connect 101 0 104 0;
#X connect 102 0 103 1;
#X connect 103 0 105 0;
#X connect 104 0 102 0;
#X connect 105 0 67 1;
#X connect 106 0 1 0;
#X connect 107 0 2 0;
#X connect 108 0 3 0;
#X connect 109 0 4 0;
#X connect 110 0 66 0;
#X connect 112 0 111 0;
#X connect 112 0 103 0;
#X connect 113 0 5 0;
#X connect 114 0 6 0;
#X connect 115 0 7 0;
#X connect 116 0 8 0;
#X connect 117 0 33 0;
#X connect 118 0 34 0;
#X connect 119 0 35 0;
#X connect 120 0 36 0;
#X connect 121 0 37 0;
#X connect 122 0 38 0;
#X connect 123 0 39 0;
#X connect 124 0 40 0;
#X connect 125 0 100 0;
#X connect 126 0 1 0;
#X connect 126 0 2 0;
#X connect 126 0 3 0;
#X connect 126 0 4 0;
#X connect 126 0 5 0;
#X connect 126 0 6 0;
#X connect 126 0 7 0;
#X connect 126 0 8 0;
#X connect 126 0 33 0;
#X connect 126 0 34 0;
#X connect 126 0 35 0;
#X connect 126 0 36 0;
#X connect 126 0 37 0;
#X connect 126 0 38 0;
#X connect 126 0 39 0;
#X connect 126 0 40 0;
#X connect 128 0 67 0;
#X connect 129 0 126 0;
#X coords 0 -1 1 1 524 33 1 577 97;
