#N canvas 1806 46 1842 912 10;
#X obj 130 -251 r ON;
#X obj 150 -480 loadbang;
#X msg 150 -438 60000;
#X obj 197 -408 bng 15 250 50 0 empty empty empty 17 7 0 10 #fcfcfc #000000 #000000;
#X obj 197 -376 /, f 4;
#X obj 197 -341 428.5;
#X obj 197 -305 s 4th_time;
#X obj 194 -252 r 4th_time;
#X obj 194 -216 * 8;
#X text 128 -276 Time Signature;
#X obj 130 -213 tgl 15 0 empty empty empty 17 7 0 10 #fcfcfc #000000 #000000 0 1;
#X obj 130 -182 metro;
#X obj 194 -183 send 2_Measures_Time;
#X obj 130 -150 bng 15 250 50 0 empty empty empty 17 7 0 10 #fcfcfc #000000 #000000;
#X obj 130 -120 s 2_Measures;
#X floatatom 369 -126 5 0 0 0 - - - 0;
#X obj 349 -260 moonlib/mknob 55 56 60 250 0 1 empty empty TEMPO -2 -6 0 8 #fcfcfc #000000 #000000 0 1;
#X obj 369 -149 int;
#X obj 369 -81 s tempo;
#X floatatom 369 -314 5 70 260 0 - - - 0;
#X obj 523 -382 comprot;
#X obj 369 -104 t f f b;
#X obj 395 -352 inlet;
#X msg 325 -351 60;
#X connect 0 0 10 0;
#X connect 1 0 2 0;
#X connect 1 0 23 0;
#X connect 2 0 4 0;
#X connect 3 0 4 0;
#X connect 4 0 5 0;
#X connect 5 0 6 0;
#X connect 7 0 8 0;
#X connect 8 0 12 0;
#X connect 8 0 11 1;
#X connect 10 0 11 0;
#X connect 11 0 13 0;
#X connect 13 0 14 0;
#X connect 15 0 21 0;
#X connect 16 0 17 0;
#X connect 17 0 15 0;
#X connect 19 0 16 0;
#X connect 21 0 18 0;
#X connect 21 1 4 1;
#X connect 21 2 3 0;
#X connect 22 0 19 0;
#X connect 23 0 19 0;
#X coords 0 -1 1 1 60 70 2 347 -272;
